<svg viewBox = "0 0 24 24" width="24" height="24" xmlns="http://www.w3.org/2000/svg"><g transform="matrix(1 0 0 1 12 12)"  ><path style="stroke: none; stroke-width: 1; stroke-dasharray: none; stroke-linecap: butt; stroke-dashoffset: 0; stroke-linejoin: miter; stroke-miterlimit: 4; fill: rgb(0,143,226); fill-rule: nonzero; opacity: 1;"  transform=" translate(-12, -12)" d="M 13.98 11.08 L 16.1 11.08 C 16.150391133069515 11.08 16.19871837652032 11.059982200330571 16.234350288425446 11.024350288425445 C 16.269982200330574 10.988718376520318 16.290000000000003 10.940391133069514 16.290000000000003 10.89 L 16.290000000000003 9.01 C 16.290000000000003 8.959608866930486 16.269982200330574 8.911281623479683 16.234350288425446 8.875649711574555 C 16.19871837652032 8.840017799669429 16.150391133069515 8.82 16.1 8.82 L 13.98 8.82 C 13.880588745030458 8.82 13.8 8.900588745030458 13.8 9 L 13.8 10.9 C 13.8 11 13.88 11.08 13.98 11.08 M 11.030000000000001 5.65 L 13.150000000000002 5.65 C 13.251009657689377 5.644676421017776 13.330140188774696 5.561149749316605 13.330000000000002 5.46 L 13.330000000000002 3.57 C 13.325002295898377 3.4727340246739917 13.24726597532601 3.3949977041016237 13.150000000000002 3.3899999999999997 L 11.030000000000001 3.3899999999999997 C 10.980553246763204 3.387248649804112 10.932157277930356 3.4049911690180013 10.896205748691376 3.439050512507561 C 10.860254219452395 3.473109855997121 10.839923512898942 3.5204768187281505 10.840000000000002 3.57 L 10.840000000000002 5.47 C 10.840000000000002 5.569999999999999 10.930000000000001 5.6499999999999995 11.030000000000001 5.6499999999999995 M 11.030000000000001 8.36 L 13.150000000000002 8.36 C 13.24726597532601 8.355002295898375 13.325002295898377 8.277265975326008 13.330000000000002 8.18 L 13.330000000000002 6.29 C 13.325002295898377 6.192734024673992 13.24726597532601 6.114997704101625 13.150000000000002 6.11 L 11.030000000000001 6.11 C 10.980553246763204 6.107248649804113 10.932157277930356 6.124991169018002 10.896205748691376 6.159050512507561 C 10.860254219452395 6.193109855997122 10.839923512898942 6.240476818728151 10.840000000000002 6.29 L 10.840000000000002 8.18 C 10.840000000000002 8.28 10.930000000000001 8.36 11.030000000000001 8.36 M 8.100000000000001 8.36 L 10.220000000000002 8.36 C 10.317265975326011 8.355002295898375 10.395002295898378 8.277265975326008 10.400000000000002 8.18 L 10.400000000000002 6.29 C 10.400000000000002 6.190588745030458 10.319411254969545 6.11 10.220000000000002 6.11 L 8.1 6.11 C 8.000588745030457 6.11 7.92 6.190588745030458 7.92 6.29 L 7.92 8.18 C 7.92 8.28 8 8.36 8.1 8.36 M 5.14 8.36 L 7.25 8.36 C 7.351149749316605 8.360140188774693 7.434676421017776 8.281009657689374 7.44 8.18 L 7.44 6.29 C 7.44007648710106 6.240476818728151 7.419745780547606 6.193109855997121 7.383794251308626 6.159050512507561 C 7.347842722069646 6.124991169018002 7.299446753236796 6.107248649804112 7.25 6.11 L 5.14 6.11 C 5.038850250683395 6.109859811225307 4.955323578982224 6.1889903423106265 4.949999999999999 6.29 L 4.949999999999999 8.18 C 4.949999999999999 8.28 5.029999999999999 8.36 5.14 8.36 M 11.03 11.08 L 13.149999999999999 11.08 C 13.251009657689371 11.074676421017775 13.330140188774692 10.991149749316605 13.329999999999998 10.89 L 13.329999999999998 9.01 C 13.330140188774692 8.908850250683395 13.251009657689373 8.825323578982225 13.149999999999999 8.82 L 11.029999999999998 8.82 C 10.9805532467632 8.817248649804112 10.932157277930353 8.834991169018002 10.896205748691372 8.869050512507561 C 10.860254219452392 8.903109855997121 10.839923512898938 8.95047681872815 10.839999999999998 9 L 10.839999999999998 10.9 C 10.839999999999998 11 10.929999999999998 11.08 11.029999999999998 11.08 M 8.099999999999998 11.08 L 10.219999999999999 11.08 C 10.269523181271849 11.08007648710106 10.316890144002878 11.059745780547606 10.350949487492437 11.023794251308626 C 10.385008830981997 10.987842722069646 10.402751350195887 10.939446753236798 10.399999999999999 10.89 L 10.399999999999999 9.01 C 10.402751350195887 8.960553246763203 10.385008830981997 8.912157277930355 10.350949487492437 8.876205748691374 C 10.316890144002878 8.840254219452394 10.269523181271849 8.81992351289894 10.219999999999999 8.82 L 8.1 8.82 C 8.000588745030457 8.82 7.92 8.900588745030458 7.92 9 L 7.92 10.9 C 7.92 11 8 11.08 8.1 11.08 M 5.14 11.08 L 7.25 11.08 C 7.301234662481112 11.082935036385825 7.351286074921745 11.063861622844438 7.3875738488830915 11.027573848883092 C 7.423861622844438 10.991286074921746 7.442935036385824 10.941234662481111 7.44 10.89 L 7.44 9.01 C 7.442751350195888 8.960553246763203 7.425008830981999 8.912157277930355 7.390949487492438 8.876205748691374 C 7.356890144002879 8.840254219452394 7.3095231812718495 8.81992351289894 7.260000000000001 8.82 L 5.14 8.82 C 5.035065897532149 8.82 4.949999999999999 8.905065897532149 4.949999999999999 9.01 L 4.949999999999999 10.89 C 4.949999999999999 10.99 5.029999999999999 11.08 5.14 11.08 M 2.2199999999999998 11.08 L 4.34 11.08 C 4.389523181271849 11.08007648710106 4.436890144002878 11.059745780547606 4.4709494874924385 11.023794251308626 C 4.505008830981998 10.987842722069646 4.522751350195887 10.939446753236798 4.52 10.89 L 4.52 9.01 C 4.522751350195887 8.960553246763203 4.505008830981998 8.912157277930355 4.470949487492438 8.876205748691374 C 4.436890144002878 8.840254219452394 4.389523181271849 8.81992351289894 4.34 8.82 L 2.22 8.82 C 2.1705532467632036 8.817248649804112 2.1221572779303544 8.834991169018002 2.0862057486913743 8.869050512507561 C 2.0502542194523943 8.903109855997121 2.029923512898941 8.95047681872815 2.0300000000000002 9 L 2.0300000000000002 10.9 C 2.0300000000000002 11 2.1100000000000003 11.08 2.22 11.08 M 23.759999999999998 9.89 C 23.7 9.84 23.089999999999996 9.38 21.81 9.38 C 21.47 9.38 21.13 9.41 20.799999999999997 9.47 C 20.620567752229146 8.406784058291056 19.99447301726015 7.471282041505988 19.08 6.9 L 18.74 6.7 L 18.509999999999998 7.03 C 18.230514146087387 7.469276364260698 18.027631720992137 7.952812810737707 17.909999999999997 8.46 C 17.669999999999998 9.430000000000001 17.809999999999995 10.34 18.309999999999995 11.120000000000001 C 17.75916676796644 11.371418802926529 17.16494162563649 11.514032837085717 16.559999999999995 11.54 L 0.76 11.540000000000001 C 0.5593606723431576 11.537324570345175 0.3660161356386327 11.615159522368101 0.22319358305986148 11.756102830833994 C 0.08037103048109029 11.897046139299887 -0.000017836995775288855 12.089342836140174 0 12.290000000000001 C -0.015624033164109732 13.674650542483594 0.2215959949397751 15.05052670548612 0.7000000000000011 16.35 C 1.1284721353948801 17.629185376562198 1.9735181391675687 18.727745181466695 3.1000000000000014 19.470000000000006 C 4.279999999999999 20.200000000000003 6.199999999999999 20.610000000000003 8.379999999999999 20.610000000000003 C 9.36 20.610000000000003 10.34 20.530000000000005 11.309999999999999 20.35 C 12.652468155366106 20.09952325501764 13.943604432579072 19.626331949232785 15.129999999999999 18.950000000000003 C 16.108970330952886 18.385103029681616 16.990311326886417 17.665847734149658 17.739999999999995 16.820000000000007 C 18.99 15.400000000000004 19.74 13.820000000000004 20.29 12.420000000000003 L 20.52 12.420000000000003 C 21.89 12.420000000000003 22.73 11.870000000000003 23.2 11.420000000000003 C 23.5 11.120000000000003 23.75 10.760000000000003 23.9 10.360000000000003 L 24 10.080000000000004 Z" stroke-linecap="round" /></g></svg>