<svg viewBox = "0 0 264.6 255.6" width="264.6" height="255.6" xmlns="http://www.w3.org/2000/svg"><g transform="matrix(1 0 0 1 131.06 128.85)"  ><path style="stroke: none; stroke-width: 1; stroke-dasharray: none; stroke-linecap: butt; stroke-dashoffset: 0; stroke-linejoin: miter; stroke-miterlimit: 4; fill: rgb(224,35,78); fill-rule: evenodd; opacity: 1;"  transform=" translate(-131.06, -128.85)" d="M 153.3 4.2 C 151.5 4.2 149.8 4.6000000000000005 148.3 5.2 C 151.60000000000002 7.300000000000001 153.4 10.2 154.3 13.5 C 154.3 14 154.5 14.3 154.60000000000002 14.8 L 154.70000000000002 15.9 C 155.00000000000003 21.6 153.20000000000002 22.3 152.00000000000003 25.700000000000003 C 150.10000000000002 30.000000000000004 150.60000000000002 34.7 152.90000000000003 38.400000000000006 C 153.10000000000002 38.900000000000006 153.30000000000004 39.400000000000006 153.70000000000005 39.800000000000004 C 151.20000000000005 23.500000000000004 164.80000000000004 21.000000000000004 167.40000000000003 15.900000000000006 C 167.60000000000002 11.500000000000005 163.90000000000003 8.500000000000005 161.00000000000003 6.400000000000006 C 158.69524303696699 4.948288259700783 156.02381117103522 4.1850220122917134 153.30000000000004 4.200000000000005 z M 174 8 C 173.7 9.5 174 9.1 173.9 9.9 L 173.70000000000002 11.6 L 173.3 13.1 L 172.8 14.7 L 172 16.2 L 171.5 16.9 L 171.1 17.5 C 170.79999999999998 18 170.5 18.5 170.1 18.8 C 169.79999999999998 19.2 169.5 19.7 169.1 20 L 167.79999999999998 21 C 166.39999999999998 22.1 164.79999999999998 22.9 163.49999999999997 23.9 C 162.99999999999997 24.2 162.49999999999997 24.4 162.19999999999996 24.9 C 161.69999999999996 25.099999999999998 161.29999999999995 25.5 160.89999999999995 25.9 L 159.79999999999995 27.099999999999998 L 158.79999999999995 28.4 L 157.89999999999995 29.7 L 157.19999999999996 31.2 L 156.69999999999996 32.7 C 156.5121048575477 33.22646611090117 156.34530533750072 33.760224575051495 156.19999999999996 34.300000000000004 L 156.09999999999997 35.2 L 155.99999999999997 35.900000000000006 L 155.89999999999998 37.60000000000001 L 155.89999999999998 38.70000000000001 L 156.2 40.30000000000001 C 156.2 40.90000000000001 156.29999999999998 41.30000000000001 156.5 41.90000000000001 L 157 43.40000000000001 L 157.4 44.40000000000001 L 142.6 38.600000000000016 L 135.1 36.600000000000016 L 131.1 35.600000000000016 C 127.19726222228097 34.83817712740055 123.25907007416222 34.27081046199363 119.29999999999998 33.90000000000003 L 118.89999999999999 33.90000000000001 C 108.27162561391654 32.75551437752086 97.53582185716033 33.09205994983295 86.99999999999996 34.9 L 84 35.5 C 82 35.8 80.1 36.3 78.3 36.7 L 75.3 37.5 L 72.6 38.7 L 70.39999999999999 39.7 L 70.1 39.800000000000004 L 68.3 40.800000000000004 L 67.8 40.900000000000006 L 65.8 41.900000000000006 L 64.6 42.60000000000001 L 63.99999999999999 42.900000000000006 L 62.29999999999999 43.900000000000006 L 60.69999999999999 44.900000000000006 L 59.39999999999999 45.800000000000004 L 59.29999999999999 45.900000000000006 L 57.99999999999999 46.900000000000006 L 58 46.900000000000006 L 57 47.7 L 56.6 48 L 55.6 48.8 C 55.6 49 55.5 49 55.4 49.099999999999994 L 54.199999999999996 50.099999999999994 L 54.199999999999996 50.3 C 53.699999999999996 50.599999999999994 53.3 51 52.99999999999999 51.4 L 52.79999999999999 51.5 L 51.79999999999999 52.5 C 51.79999999999999 52.7 51.49999999999999 52.8 51.39999999999999 53 L 50.39999999999999 54.1 L 49.99999999999999 54.4 L 48.599999999999994 56 L 48.39999999999999 56.2 C 46.31814404465641 58.47598055351149 43.96760581075801 60.49072761113868 41.39999999999999 62.2 C 37.663606365282746 64.75004654906627 33.591442246223075 66.76930148413716 29.29999999999999 68.19999999999999 C 26.59999999999999 68.7 23.79999999999999 69.8 21.39999999999999 70 L 19.79999999999999 70.2 L 18.19999999999999 70.60000000000001 L 16.599999999999987 71.2 L 15.099999999999987 71.9 L 13.699999999999987 72.80000000000001 C 13.199999999999987 73.10000000000001 12.699999999999987 73.50000000000001 12.399999999999986 73.9 C 11.899999999999986 74.2 11.399999999999986 74.7 11.099999999999985 75.10000000000001 L 9.999999999999986 76.4 L 8.999999999999986 77.80000000000001 L 8.099999999999985 79.30000000000001 L 7.399999999999985 81.00000000000001 L 6.799999999999986 82.70000000000002 L 6.499999999999986 84.20000000000002 L 6.499999999999986 84.40000000000002 L 6 86.2 L 6 88.3 C 6.085250290391018 89.13594944292674 6.322476624340286 89.94929687360995 6.700000000000002 90.7 L 7.4 91.9 L 8.200000000000001 93.10000000000001 C 8.93729790377571 93.838501541004 9.740649681938148 94.50796135613938 10.59999999999999 95.10000000000001 C 12.100000000000001 96.50000000000001 12.500000000000002 97.00000000000001 14.500000000000002 98.00000000000001 L 15.500000000000002 98.50000000000001 L 15.700000000000001 98.50000000000001 L 15.700000000000001 98.90000000000002 C 15.905059628009145 99.97040272282311 16.240911075933607 101.01154221138894 16.7 102.00000000000001 L 17.200000000000003 103.20000000000002 L 17.300000000000004 103.50000000000001 C 17.84454313958376 104.46784166379345 18.445582533488047 105.402791832089 19.100000000000012 106.30000000000001 L 20.100000000000005 107.50000000000001 L 21.400000000000006 108.60000000000001 L 21.500000000000007 108.60000000000001 C 23.05804174557661 109.98415144116055 24.90166068437039 111.00838418493487 26.900000000000002 111.60000000000001 L 27.200000000000006 111.7 L 28.000000000000007 111.9 C 27.800000000000008 115.4 27.700000000000006 118.7 28.300000000000008 119.9 C 28.800000000000008 121.10000000000001 31.700000000000006 117.2 34.50000000000001 112.7 C 34.10000000000001 117.10000000000001 33.900000000000006 122.4 34.50000000000001 123.9 C 35.20000000000001 125.5 39.10000000000001 120.5 42.50000000000001 114.9 C 63.60788391200326 109.77975341364643 85.89910532883496 114.10018297581519 103.56563219955711 126.73559023770125 C 121.2321590702793 139.3709974995873 132.52435104785425 159.0700092564616 134.5 180.7 C 133.7 173.7 125.1 169.89999999999998 121.1 170.79999999999998 C 119.1 175.6 115.89999999999999 181.79999999999998 110.6 185.6 C 111 181.29999999999998 110.8 176.9 109.89999999999999 172.6 C 108.49999999999999 178.6 105.69999999999999 184.1 101.89999999999999 188.9 C 95.8872820689506 189.30857416629817 90.06904653492305 186.68098392512445 86.39999999999999 181.9 L 85.89999999999999 181.1 L 85.39999999999999 179.7 L 84.99999999999999 178.39999999999998 L 84.99999999999999 176 C 84.99999999999999 175.5 85.09999999999998 175 85.29999999999998 174.6 C 85.29999999999998 174.2 85.49999999999999 173.7 85.69999999999999 173.29999999999998 L 86.49999999999999 171.89999999999998 C 87.49999999999999 168.89999999999998 87.49999999999999 166.29999999999998 85.49999999999999 164.89999999999998 L 84.39999999999999 164.2 L 83.49999999999999 163.89999999999998 L 82.99999999999999 163.7 L 81.59999999999998 163.39999999999998 C 81.17736410923642 163.2763794230454 80.74024966461053 163.20913104694912 80.29999999999998 163.2 L 78.89999999999998 163.1 L 77.89999999999998 163.1 L 76.49999999999997 163.29999999999998 L 75.09999999999997 163.6 L 73.79999999999997 164 L 72.49999999999997 164.6 L 71.19999999999997 165.29999999999998 C 56.199999999999974 175.1 65.19999999999997 198.09999999999997 75.39999999999998 204.79999999999998 C 71.59999999999998 205.49999999999997 67.59999999999998 206.29999999999998 66.49999999999997 207.1 L 66.39999999999998 207.29999999999998 C 72.33394129792914 210.83784288152592 78.82659676946523 213.34022051118043 85.59999999999997 214.7 C 102.07716801638155 217.9132312275508 119.15172195448055 214.25110480361894 132.86190103814505 204.5633336329304 C 146.5720801218095 194.87556246224185 155.7261075288726 180.00426983649305 158.2 163.39999999999998 L 158.6 165.09999999999997 C 158.79999999999998 166.29999999999995 159.1 167.49999999999997 159.2 168.79999999999995 L 159.39999999999998 170.49999999999994 L 159.39999999999998 170.79999999999995 L 159.59999999999997 172.39999999999995 L 159.69999999999996 174.59999999999994 L 159.69999999999996 179.99999999999994 L 159.59999999999997 180.79999999999995 L 159.59999999999997 182.29999999999995 C 159.39999999999998 182.49999999999994 159.39999999999998 182.69999999999996 159.39999999999998 182.79999999999995 C 159.39999999999998 183.39999999999995 159.39999999999998 183.79999999999995 159.2 184.29999999999995 L 159.2 184.89999999999995 C 159.2 185.59999999999994 159 186.09999999999994 158.89999999999998 186.79999999999995 L 158.89999999999998 186.89999999999995 L 158.49999999999997 188.69999999999996 L 158.49999999999997 188.89999999999995 C 158.49999999999997 189.49999999999994 158.29999999999998 190.09999999999994 158.09999999999997 190.69999999999996 L 158.09999999999997 190.89999999999995 L 157.59999999999997 192.69999999999996 L 157.59999999999997 192.89999999999995 L 157.09999999999997 194.69999999999996 L 157.09999999999997 194.79999999999995 L 156.49999999999997 196.79999999999995 L 155.79999999999998 198.59999999999997 L 154.99999999999997 200.49999999999997 L 154.29999999999998 202.39999999999998 C 153.89999999999998 202.89999999999998 153.7 203.59999999999997 153.29999999999998 204.2 L 153.2 204.6 C 153.2 204.6 153.2 204.79999999999998 153 204.79999999999998 C 148.74205446144617 213.3462452632076 142.54350540675784 220.7776549033588 134.9 226.49999999999997 L 133.3 227.59999999999997 C 133.3 227.79999999999995 133 227.79999999999995 132.9 227.99999999999997 L 131.5 228.99999999999997 L 131.7 229.29999999999998 L 134.39999999999998 228.89999999999998 L 134.49999999999997 228.89999999999998 C 136.67595628719914 228.5520670089709 138.84324717920225 228.15195176737035 140.99999999999994 227.7 L 141.89999999999998 227.5 L 143.2 227.2 L 144.39999999999998 226.89999999999998 C 150.79999999999998 225.39999999999998 157.09999999999997 223.2 163.09999999999997 220.7 C 152.89999999999998 234.7 139.09999999999997 246 122.99999999999997 253.5 C 157.81069592877287 251.14145831596602 189.0726423542907 231.35351148104138 206.09999999999997 200.90000000000003 C 203.39999999999998 215.9 197.49999999999997 230 188.69999999999996 242.4 C 212.61793269546826 226.63068592790322 228.77546828141632 201.50481036503567 233.19999999999993 173.20000000000005 C 235.39999999999995 183.39999999999998 235.99999999999997 193.89999999999998 234.99999999999997 204.29999999999998 C 281.7 139.29999999999998 238.99999999999997 71.79999999999998 220.99999999999997 53.99999999999997 L 220.89999999999998 53.699999999999974 L 220.89999999999998 53.799999999999976 L 220.79999999999998 53.699999999999974 L 220.6 55.99999999999997 C 220.43580132972932 57.43810135286886 220.23573904980353 58.87188102567055 220 60.29999999999997 L 218.9 64.59999999999997 C 217.95243980683256 67.35725783194536 216.78190424383644 70.03276769022226 215.4 72.59999999999997 C 212.83892728010383 77.15625623034452 209.48654082865107 81.2197549593782 205.5 84.59999999999997 L 204 85.99999999999997 C 201.73400636881735 87.86226918959142 199.2489194113041 89.44063523017418 196.6 90.69999999999997 L 192.6 92.49999999999997 C 189.81540584102237 93.54593483221852 186.93495599822788 94.31628769715194 184 94.79999999999997 L 179.6 95.39999999999996 C 175.61560136949404 95.6119801997913 171.62017273770402 95.34337995563735 167.7 94.59999999999997 L 163.39999999999998 93.49999999999997 C 170.7300248925481 92.85003809980596 177.81246963680584 90.52343789396284 184.09999999999997 86.69999999999999 L 187.69999999999996 84.09999999999998 L 190.99999999999997 81.19999999999997 L 193.99999999999997 77.99999999999997 C 194.99999999999997 76.89999999999998 195.89999999999998 75.69999999999997 196.69999999999996 74.49999999999997 C 196.89999999999995 74.39999999999998 196.99999999999997 74.09999999999997 197.09999999999997 73.89999999999998 L 198.99999999999997 70.79999999999998 C 200.4261147873497 68.25452480704683 201.59842399265534 65.57496090920534 202.49999999999997 62.79999999999997 C 202.89999999999998 61.399999999999984 203.29999999999998 59.899999999999984 203.49999999999997 58.499999999999986 C 203.79999999999998 56.999999999999986 204.09999999999997 55.59999999999999 204.19999999999996 54.19999999999999 L 204.49999999999997 49.79999999999999 L 204.39999999999998 46.69999999999999 L 203.79999999999998 42.39999999999999 C 203.6 40.89999999999999 203.29999999999998 39.39999999999999 202.79999999999998 37.99999999999999 C 202.39999999999998 36.699999999999996 201.99999999999997 35.29999999999999 201.39999999999998 33.89999999999999 C 200.89999999999998 32.49999999999999 200.29999999999998 31.199999999999992 199.59999999999997 29.89999999999999 L 197.39999999999998 26.09999999999999 C 195.71088130703808 23.688653682413882 193.8740314024527 21.384241983934018 191.89999999999998 19.2 C 188.46218703484365 15.620598527817943 184.3942782342536 12.705263887395073 179.89999999999995 10.599999999999984 C 178 9.3 176 8.6 174 8 z" stroke-linecap="round" /></g></svg>