<svg viewBox = "0 0 256 292" width="256" height="292" xmlns="http://www.w3.org/2000/svg"><g transform="matrix(1 0 0 1 128 146)"  ><g style=""   ><g transform="matrix(1 0 0 1 0 -0.15)"  ><linearGradient id="SVGID_a_953" gradientUnits="objectBoundingBox" gradientTransform="matrix(1 0 0 1 0 0)"  x1="0.68188" y1="0.17487" x2="0.27823000000000003" y2="0.89755"><stop offset="0%" style="stop-color:rgb(65,135,63);stop-opacity: 1"/><stop offset="32.88%" style="stop-color:rgb(65,139,61);stop-opacity: 1"/><stop offset="63.519999999999996%" style="stop-color:rgb(65,150,55);stop-opacity: 1"/><stop offset="93.19%" style="stop-color:rgb(63,169,45);stop-opacity: 1"/><stop offset="100%" style="stop-color:rgb(63,174,42);stop-opacity: 1"/></linearGradient><path style="stroke: none; stroke-width: 1; stroke-dasharray: none; stroke-linecap: butt; stroke-dashoffset: 0; stroke-linejoin: miter; stroke-miterlimit: 4; fill: url(#SVGID_a_953); fill-rule: nonzero; opacity: 1;"  transform=" translate(-128, -145.85)" d="M 134.923 1.832 C 130.579 -0.611 125.421 -0.611 121.077 1.832 L 6.787 67.801 C 2.443 70.244 0 74.859 0 79.745 L 0 211.953 C 0 216.84 2.715 221.455 6.787 223.898 L 121.07700000000001 289.866 C 125.421 292.31 130.579 292.31 134.923 289.866 L 249.21300000000002 223.89799999999997 C 253.55700000000002 221.45499999999996 256 216.83999999999997 256 211.95299999999997 L 256 79.745 C 256 74.85900000000001 253.285 70.244 249.213 67.801 L 134.923 1.832 Z" stroke-linecap="round" /></g><g transform="matrix(1 0 0 1 -0.54 0.26)"  ><linearGradient id="SVGID_c_954" gradientUnits="objectBoundingBox" gradientTransform="matrix(1 0 0 1 0 0)"  x1="0.43277000000000004" y1="0.55169" x2="1.5924500000000001" y2="-0.18306"><stop offset="13.76%" style="stop-color:rgb(65,135,63);stop-opacity: 1"/><stop offset="40.32%" style="stop-color:rgb(84,160,68);stop-opacity: 1"/><stop offset="71.36%" style="stop-color:rgb(102,184,72);stop-opacity: 1"/><stop offset="90.81%" style="stop-color:rgb(108,192,74);stop-opacity: 1"/></linearGradient><path style="stroke: none; stroke-width: 1; stroke-dasharray: none; stroke-linecap: butt; stroke-dashoffset: 0; stroke-linejoin: miter; stroke-miterlimit: 4; fill: url(#SVGID_c_954); fill-rule: nonzero; opacity: 1;"  transform=" translate(-127.46, -146.26)" d="M 249.485 67.8 L 134.65 1.833 C 133.564 1.291 132.207 0.748 131.121 0.476 L 2.443 220.912 C 3.529 222.269 4.8870000000000005 223.35500000000002 6.243 224.17000000000002 L 121.077 290.13800000000003 C 124.335 292.038 128.136 292.581 131.665 291.49500000000006 L 252.47 70.515 C 251.655 69.429 250.57 68.615 249.484 67.801 Z" stroke-linecap="round" /></g><g transform="matrix(1 0 0 1 3.66 -0.14)"  ><linearGradient id="SVGID_f_955" gradientUnits="objectBoundingBox" gradientTransform="matrix(1 0 0 1 0 0)"  x1="-0.043890000000000005" y1="0.49997" x2="1.01499" y2="0.49997"><stop offset="9.192%" style="stop-color:rgb(108,192,74);stop-opacity: 1"/><stop offset="28.64%" style="stop-color:rgb(102,184,72);stop-opacity: 1"/><stop offset="59.68%" style="stop-color:rgb(84,160,68);stop-opacity: 1"/><stop offset="86.24%" style="stop-color:rgb(65,135,63);stop-opacity: 1"/></linearGradient><path style="stroke: none; stroke-width: 1; stroke-dasharray: none; stroke-linecap: butt; stroke-dashoffset: 0; stroke-linejoin: miter; stroke-miterlimit: 4; fill: url(#SVGID_f_955); fill-rule: nonzero; opacity: 1;"  transform=" translate(-131.66, -145.86)" d="M 249.756 223.898 C 253.014 221.998 255.457 218.74 256.543 215.21099999999998 L 130.579 0.204 C 127.32100000000001 -0.3390000000000001 123.792 -0.06800000000000003 120.80600000000001 1.8319999999999999 L 6.786 67.53 L 129.765 291.76800000000003 C 131.39299999999997 291.49600000000004 133.29399999999998 290.95300000000003 134.92299999999997 290.13800000000003 L 249.75599999999997 223.89900000000003 Z" stroke-linecap="round" /></g></g></g></svg>