<svg viewBox = "0 0 256 264" width="256" height="264" xmlns="http://www.w3.org/2000/svg"><g transform="matrix(1 0 0 1 128 132)"  ><g style=""   ><g transform="matrix(1 0 0 1 -0.27 0)"  ><path style="stroke: none; stroke-width: 1; stroke-dasharray: none; stroke-linecap: butt; stroke-dashoffset: 0; stroke-linejoin: miter; stroke-miterlimit: 4; fill: rgb(0,0,0); fill-rule: nonzero; opacity: 1;"  transform=" translate(-127.73, -132)" d="M 255 158 C 253 153 249 150 244 149 L 236 150 L 222 152 C 234 132 244 109 249 87 C 258 53 254 37 248 30 C 233.20706906946134 10.798989624354427 210.23654031553696 -0.3157823533509294 186 0 C 172 0 159 3 153 5 L 134 3 C 122 3 110 6 101 11 L 78 5 C 55 2 36 5 23 14 C 7 26 -1 46 0 74 C 4.483161276535764 107.54049336269716 13.919288341405924 140.22993355171144 28.000000000000057 171 C 35 185 42 193 51 195 C 56 197 64 198 73 191 L 78 195 L 87 198 C 98 201 109 200 118 197 C 118.02592055772925 200.33328294268486 118.02592055772914 203.666717057315 117.99999999999989 206.99999999999986 C 117.96265438020137 218.19145728719369 119.6490873929626 229.32191517141783 122.99999999999999 240 C 124 244 127 251 132 256 C 138 262 145 264 152 264 L 161 263 C 171 261 182 257 190 246 C 198 235 201 219 202 193 L 202 191 L 203 189 L 204 190 L 205 190 C 215 190 227 188 235 184 C 240 182 259 172 255 158" stroke-linecap="round" /></g><g transform="matrix(1 0 0 1 -0.25 0.08)"  ><path style="stroke: none; stroke-width: 1; stroke-dasharray: none; stroke-linecap: butt; stroke-dashoffset: 0; stroke-linejoin: miter; stroke-miterlimit: 4; fill: rgb(51,103,145); fill-rule: nonzero; opacity: 1;"  transform=" translate(-127.75, -132.08)" d="M 238 161 C 208 167 206 157 206 157 C 238 110 251 51 239 37 C 208 -3 155 16 154 16 L 134 14 C 120 14 110 18 102 24 C 102 24 7 -16 11 73 C 12 92 39 216 70 179 L 92 153 C 98 157 104 159 111 158 L 112 158 L 112 163 C 104 172 106 173 90 177 C 74 180 83 186 90 188 C 97 190 115 192 126 176 L 126 178 C 129 180 131 194 131 207 C 130 219 130 228 133 234 C 135 241 138 256 159 252 C 176 248 186 238 187 222 C 188 210 190 212 190 202 L 191 197 C 193 181 192 176 203 178 L 205 179 C 213 179 224 177 230 174 C 243 168 251 158 238 161" stroke-linecap="round" /></g><g transform="matrix(1 0 0 1 21 -47.2)"  ><path style="stroke: none; stroke-width: 1; stroke-dasharray: none; stroke-linecap: butt; stroke-dashoffset: 0; stroke-linejoin: miter; stroke-miterlimit: 4; fill: rgb(255,255,255); fill-rule: nonzero; opacity: 1;"  transform=" translate(-149, -84.8)" d="M 108 82 L 102 82 L 101 84 L 102 87 C 103 89 105 90 107 90 L 108 90 C 111 90 114 88 114 86 C 115 84 111 82 108 82 M 197 82 C 197 80 193 79 190 80 C 187 80 184 81 184 83 C 185 85 187 87 190 87 L 191 87 L 195 85 L 197 82" stroke-linecap="round" /></g><g transform="matrix(1 0 0 1 -0.06 -0.01)"  ><path style="stroke: none; stroke-width: 1; stroke-dasharray: none; stroke-linecap: butt; stroke-dashoffset: 0; stroke-linejoin: miter; stroke-miterlimit: 4; fill: rgb(255,255,255); fill-rule: nonzero; opacity: 1;"  transform=" translate(-127.94, -131.99)" d="M 248 160 C 247 157 243 155 237 157 C 219 160 213 158 210 156 C 224 135 236 109 242 85 C 245 74 247 63 247 55 C 247 45 245 38 242 34 C 228.36066916343773 16.4652559796004 207.20790744166084 6.445526742969232 184.99999999999997 7 C 169 7 155 11 152 13 C 147 11 140 10 134 10 C 121 10 111 13 102 19 C 98 17 88 14 76 12 C 55 9 39 11 27 20 C 13 30 6 48 8 73 C 8 81 13 108 21 133 C 31 166 42 184 53 188 L 58 189 C 62 189 67 187 72 180 L 93 158 C 97 160 102 161 107 161 L 107 162 L 105 165 C 101 170 100 170 89 173 C 86 173 77 175 77 181 C 77 188 87 191 88 191 L 100 192 C 109 192 117 189 124 184 C 123 207 124 230 127 237 C 130 243 135 257 153 257 L 162 256 C 180 252 188 244 191 226 L 197 181 L 208 182 C 216 182 225 180 231 177 C 238 174 250 167 248 160 Z M 204 77 L 203 87 L 201 99 L 202 113 C 203 122 205 132 200 141 L 198 137 L 195 131 C 188 119 173 92 181 81 C 183 78 189 75 204 77 Z M 186 15 C 207 15 224 23 236 38 C 245 50 235 103 206 149 L 205 148 C 212 135 211 123 210 112 L 209 99 L 210 88 C 210.9278941359112 82.72052008343485 211.2633060207287 77.35392992635512 211 71.99999999999997 C 211 67 205 52 193 38 C 187 31 177 22 165 17 L 186 15 Z M 67 176 C 61 183 57 182 55 181 C 47 178 36 160 28 130 C 20 105 15 80 15 73 C 14 50 19 34 31 26 C 51 12 83 20 95 24 L 95 25 C 74 46 74 82 74 85 L 74 88 C 75 95 76 106 74 119 C 72.02638755303865 131.63032438986932 76.53566115503213 144.4065995955175 86.00000000000001 153 L 67 176 Z M 89 146 C 83 139 80 130 81 120 C 83 106 82 94 82 88 L 82 86 C 85 83 99 75 109 78 C 114 79 117 82 118 87 C 124 115 119 127 114 137 L 112 142 L 111 144 L 108 154 C 101 154 94 151 89 146 Z M 90 184 L 85 182 L 91 180 C 104 177 106 175 110 170 L 114 165 C 117 162 118 163 120 164 C 121 164 123 166 124 169 L 123 173 C 114 186 100 186 90 184 Z M 160 249 C 144 252 138 244 134 234 C 130.43884261509305 211.85510961991665 129.43225007745897 189.37454294608867 131 167.0000000000002 C 129 162 126 158 123 157 C 121 156 118 155 115 156 L 118 146 L 119 145 L 121 140 C 126 130 132 116 125 86 C 123 74 114 69 102 70 C 94.93646321532722 70.98959808592026 88.1389507248949 73.36872745757158 81.99999999999997 77.00000000000001 C 83 65 87 44 100 30 C 109 22 120 17 134 18 C 161 18 178 32 188 44 C 196 54 201 64 203 69 C 189 68 180 70 175 77 C 165 92 181 121 188 134 L 191 140 L 199 153 L 201 155 C 197 157 190 159 190 173 L 184 224 C 181 240 176 245 160 249 Z M 228 171 C 224 173 217 174 210 174 C 202 175 199 174 198 173 C 197 164 201 163 204 162 L 206 162 L 207 163 C 213 167 223 167 238 164 L 239 164 L 228 171 Z" stroke-linecap="round" /></g></g></g></svg>