<svg viewBox = "0 0 256 220" width="256" height="220" xmlns="http://www.w3.org/2000/svg"><g transform="matrix(1 0 0 1 128 110)"  ><g style=""   ><g transform="matrix(1 0 0 1 0 52.89)"  ><path style="stroke: none; stroke-width: 1; stroke-dasharray: none; stroke-linecap: butt; stroke-dashoffset: 0; stroke-linejoin: miter; stroke-miterlimit: 4; fill: rgb(145,38,38); fill-rule: nonzero; opacity: 1;"  transform=" translate(-128, -162.89)" d="M 246 169 C 232.3 176 161.5 205.2 146.5 213 C 131.4 220.9 123 220.8 111.1 215.1 C 99.2 209.4 24 179 10.3 172.5 C 3.6 169.3 0 166.5 0 164 L 0 138 C 0 138 98 116.7 113.9 111 C 129.70000000000002 105.4 135.20000000000002 105.2 148.7 110.1 C 162.1 115.1 242.7 129.6 256 134.4 L 256 160 C 256 162.5 253 165.3 246 169" stroke-linecap="round" /></g><g transform="matrix(1 0 0 1 -0.01 29.68)"  ><path style="stroke: none; stroke-width: 1; stroke-dasharray: none; stroke-linecap: butt; stroke-dashoffset: 0; stroke-linejoin: miter; stroke-miterlimit: 4; fill: rgb(198,48,43); fill-rule: nonzero; opacity: 1;"  transform=" translate(-127.99, -139.68)" d="M 246 143.2 C 232.3 150.29999999999998 161.5 179.39999999999998 146.5 187.2 C 131.4 195.2 123 195.1 111.1 189.39999999999998 C 99.19999999999999 183.7 23.89999999999999 153.29999999999998 10.299999999999997 146.79999999999998 C -3.200000000000003 140.29999999999998 -3.5000000000000036 135.79999999999998 9.799999999999997 130.6 C 23.199999999999996 125.39999999999999 98 96 113.8 90.3 C 129.8 84.7 135.2 84.5 148.7 89.3 C 162.1 94.3 232.5 122.3 245.79999999999998 127.19999999999999 C 259.09999999999997 132.1 259.59999999999997 136.1 245.99999999999997 143.2" stroke-linecap="round" /></g><g transform="matrix(1 0 0 1 0 11)"  ><path style="stroke: none; stroke-width: 1; stroke-dasharray: none; stroke-linecap: butt; stroke-dashoffset: 0; stroke-linejoin: miter; stroke-miterlimit: 4; fill: rgb(145,38,38); fill-rule: nonzero; opacity: 1;"  transform=" translate(-128, -121)" d="M 246 127 C 232.3 134.2 161.5 163.3 146.5 171.2 C 131.4 179 123 178.89999999999998 111.1 173.2 C 99.19999999999999 167.6 23.89999999999999 137.2 10.299999999999997 130.6 C 3.599999999999997 127.39999999999999 -3.552713678800501e-15 124.6 -3.552713678800501e-15 122.1 L -3.552713678800501e-15 96.2 C -3.552713678800501e-15 96.2 98 74.9 113.9 69.2 C 129.70000000000002 63.5 135.20000000000002 63.300000000000004 148.7 68.2 C 162.1 73.2 242.7 87.7 256 92.6 L 256 118 C 256 120.5 253 123.4 246 127" stroke-linecap="round" /></g><g transform="matrix(1 0 0 1 -0.01 -12.22)"  ><path style="stroke: none; stroke-width: 1; stroke-dasharray: none; stroke-linecap: butt; stroke-dashoffset: 0; stroke-linejoin: miter; stroke-miterlimit: 4; fill: rgb(198,48,43); fill-rule: nonzero; opacity: 1;"  transform=" translate(-127.99, -97.78)" d="M 246 101.4 C 232.3 108.4 161.5 137.60000000000002 146.5 145.4 C 131.4 153.3 123 153.20000000000002 111.1 147.5 C 99.2 141.8 24 111.4 10.3 105 C -3.1999999999999993 98.5 -3.5 94 9.8 88.9 C 23.2 83.5 98 54 113.8 48.5 C 129.8 42.8 135.2 42.5 148.7 47.5 C 162.1 52.5 232.5 80.5 245.79999999999998 85.3 C 259.09999999999997 90.3 259.59999999999997 94.3 245.99999999999997 101.3" stroke-linecap="round" /></g><g transform="matrix(1 0 0 1 0 -32.41)"  ><path style="stroke: none; stroke-width: 1; stroke-dasharray: none; stroke-linecap: butt; stroke-dashoffset: 0; stroke-linejoin: miter; stroke-miterlimit: 4; fill: rgb(145,38,38); fill-rule: nonzero; opacity: 1;"  transform=" translate(-128, -77.59)" d="M 246 83.7 C 232.3 90.7 161.5 119.9 146.5 127.7 C 131.4 135.6 123 135.5 111.1 129.8 C 99.2 124.1 24 93.7 10.3 87.2 C 3.6 84 0 81.2 0 78.7 L 0 52.7 C 0 52.7 98 31.400000000000002 113.9 25.700000000000003 C 129.70000000000002 20.1 135.20000000000002 19.900000000000002 148.7 24.800000000000004 C 162.1 29.800000000000004 242.7 44.300000000000004 256 49.2 L 256 74.7 C 256 77.2 253 80 246 83.7" stroke-linecap="round" /></g><g transform="matrix(1 0 0 1 -0.01 -55.62)"  ><path style="stroke: none; stroke-width: 1; stroke-dasharray: none; stroke-linecap: butt; stroke-dashoffset: 0; stroke-linejoin: miter; stroke-miterlimit: 4; fill: rgb(198,48,43); fill-rule: nonzero; opacity: 1;"  transform=" translate(-127.99, -54.38)" d="M 246 58 C 232.3 65 161.5 94.1 146.5 102 C 131.4 109.9 123 109.8 111.1 104 C 99.2 98.5 24 68 10.3 61.6 C -3.1999999999999993 55.1 -3.5 50.6 9.8 45.400000000000006 C 23.2 40.1 98 10.7 113.8 5 C 129.8 -0.5999999999999996 135.2 -0.7999999999999998 148.7 4.1 C 162.1 9.1 232.5 37.1 245.79999999999998 41.9 C 259.09999999999997 46.8 259.59999999999997 50.9 245.99999999999997 57.9" stroke-linecap="round" /></g><g transform="matrix(1 0 0 1 -27.05 -57.85)"  ><path style="stroke: none; stroke-width: 1; stroke-dasharray: none; stroke-linecap: butt; stroke-dashoffset: 0; stroke-linejoin: miter; stroke-miterlimit: 4; fill: rgb(255,255,255); fill-rule: nonzero; opacity: 1;"  transform=" translate(-100.95, -52.15)" d="M 159.3 32.8 L 137.3 35 L 132.3 46.9 L 124.30000000000001 33.7 L 99 31.4 L 118 24.5 L 112.2 14 L 130 21 L 146.7 15.5 L 142.2 26.4 L 159.2 32.8 M 131 90.3 L 90 73.3 L 148.8 64.2 L 131 90.2 M 74 39.3 C 91.5 39.3 105.5 44.8 105.5 51.5 C 105.5 58.3 91.5 63.7 74.1 63.7 C 56.69999999999999 63.7 42.599999999999994 58.300000000000004 42.599999999999994 51.5 C 42.599999999999994 44.8 56.699999999999996 39.3 74.1 39.3" stroke-linecap="round" /></g><g transform="matrix(1 0 0 1 74.6 -60.25)"  ><path style="stroke: none; stroke-width: 1; stroke-dasharray: none; stroke-linecap: butt; stroke-dashoffset: 0; stroke-linejoin: miter; stroke-miterlimit: 4; fill: rgb(98,27,28); fill-rule: nonzero; opacity: 1;"  transform=" translate(-202.6, -49.75)" d="M 185.3 36 L 220 49.8 L 185.2 63.5 L 185.2 36" stroke-linecap="round" /></g><g transform="matrix(1 0 0 1 38.05 -59.5)"  ><path style="stroke: none; stroke-width: 1; stroke-dasharray: none; stroke-linecap: butt; stroke-dashoffset: 0; stroke-linejoin: miter; stroke-miterlimit: 4; fill: rgb(154,41,40); fill-rule: nonzero; opacity: 1;"  transform=" translate(-166.05, -50.5)" d="M 146.8 51.2 L 185.3 36 L 185.3 63.5 L 181.5 65 L 146.8 51.2" stroke-linecap="round" /></g></g></g></svg>