<svg viewBox = "0 0 256 154" width="256" height="154" xmlns="http://www.w3.org/2000/svg"><g transform="matrix(1 0 0 1 128 76.8)"  ><linearGradient id="SVGID_gradient_949" gradientUnits="objectBoundingBox" gradientTransform="matrix(1 0 0 1 0 0)"  x1="-0.02778" y1="0.32" x2="1" y2="0.6755599999999999"><stop offset="0%" style="stop-color:rgb(34,152,189);stop-opacity: 1"/><stop offset="100%" style="stop-color:rgb(14,215,181);stop-opacity: 1"/></linearGradient><path style="stroke: none; stroke-width: 1; stroke-dasharray: none; stroke-linecap: butt; stroke-dashoffset: 0; stroke-linejoin: miter; stroke-miterlimit: 4; fill: url(#SVGID_gradient_949); fill-rule: nonzero; opacity: 1;"  transform=" translate(-128, -76.8)" d="M 128 0 C 93.867 0 72.533 17.067 64 51.2 C 76.8 34.133 91.733 27.733 108.8 32 C 118.53699999999999 34.434 125.497 41.499 133.201 49.318 C 145.751 62.057 160.275 76.8 192 76.8 C 226.133 76.8 247.46699999999998 59.733 256 25.599999999999994 C 243.2 42.666999999999994 228.267 49.06699999999999 211.2 44.8 C 201.463 42.366 194.503 35.300999999999995 186.79899999999998 27.481999999999996 C 174.249 14.743 159.725 0 128 0 Z M 64 76.8 C 29.867 76.8 8.533 93.867 0 128 C 12.8 110.93299999999999 27.733 104.533 44.8 108.8 C 54.537 111.234 61.497 118.29899999999999 69.201 126.118 C 81.751 138.857 96.275 153.6 128 153.6 C 162.133 153.6 183.46699999999998 136.533 192 102.39999999999999 C 179.2 119.46699999999998 164.267 125.86699999999999 147.2 121.6 C 137.463 119.166 130.503 112.101 122.79899999999999 104.282 C 110.249 91.543 95.725 76.8 64 76.8 Z" stroke-linecap="round" /></g></svg>