<svg viewBox = "0 0 256 256" width="256" height="256" xmlns="http://www.w3.org/2000/svg"><g transform="matrix(1 0 0 1 128 128)"  ><g style=""   ><g transform="matrix(1 0 0 1 0 0)"  ><path style="stroke: none; stroke-width: 1; stroke-dasharray: none; stroke-linecap: butt; stroke-dashoffset: 0; stroke-linejoin: miter; stroke-miterlimit: 4; fill: rgb(49,120,198); fill-rule: nonzero; opacity: 1;"  transform=" translate(-128, -128)" d="M 20 0 L 236 0 C 247.046 0 256 8.954 256 20 L 256 236 C 256 247.046 247.046 256 236 256 L 20 256 C 8.954 256 0 247.046 0 236 L 0 20 C 0 8.954 8.954 0 20 0 Z" stroke-linecap="round" /></g><g transform="matrix(1 0 0 1 10 43)"  ><path style="stroke: none; stroke-width: 1; stroke-dasharray: none; stroke-linecap: butt; stroke-dashoffset: 0; stroke-linejoin: miter; stroke-miterlimit: 4; fill: rgb(255,255,255); fill-rule: nonzero; opacity: 1;"  transform=" translate(-138, -171)" d="M 150.518 200.475 L 150.518 228.095 C 155.01 230.397 160.323 232.123 166.456 233.274 C 172.589 234.425 179.053 235 185.849 235 C 192.471 235 198.76299999999998 234.367 204.72299999999998 233.101 C 210.683 231.835 215.91 229.749 220.40099999999998 226.844 C 224.89299999999997 223.938 228.44899999999998 220.14 231.07 215.45 C 233.69 210.761 235 204.964 235 198.059 C 235 193.053 234.251 188.665 232.754 184.896 C 231.2733771733726 181.15252124322632 229.07206405114604 177.7362219001196 226.27499999999998 174.84099999999998 C 223.45399999999998 171.90599999999998 220.06999999999996 169.27399999999997 216.12599999999998 166.94299999999998 C 212.18099999999998 164.61299999999997 207.73199999999997 162.41199999999998 202.77899999999997 160.34099999999998 C 199.15099999999995 158.84399999999997 195.89799999999997 157.39199999999997 193.01799999999997 155.98199999999997 C 190.13899999999998 154.57199999999997 187.69099999999997 153.13399999999996 185.67599999999996 151.66599999999997 C 183.65999999999997 150.19899999999996 182.10499999999996 148.64499999999998 181.01099999999997 147.00499999999997 C 179.91699999999997 145.36499999999998 179.36999999999998 143.50999999999996 179.36999999999998 141.43799999999996 C 179.36999999999998 139.53899999999996 179.85899999999998 137.82799999999995 180.83799999999997 136.30299999999997 C 181.81699999999995 134.778 183.19999999999996 133.46899999999997 184.98499999999996 132.37599999999998 C 186.76999999999995 131.28199999999998 188.95799999999997 130.43399999999997 191.54999999999995 129.82899999999998 C 194.14099999999996 129.22499999999997 197.02099999999996 128.92299999999997 200.18799999999996 128.92299999999997 C 202.49199999999996 128.92299999999997 204.92499999999995 129.09599999999998 207.48699999999997 129.44099999999997 C 210.04999999999995 129.78599999999997 212.62699999999995 130.31799999999998 215.21899999999997 131.03799999999998 C 217.8027135679663 131.75427218649926 220.32912044066958 132.663150234512 222.777 133.75699999999998 C 225.15060420119968 134.80881696562568 227.42079427108573 136.08000288147252 229.55799999999996 137.55399999999997 L 229.55799999999996 111.74699999999997 C 225.35399999999996 110.13599999999997 220.76099999999997 108.94199999999996 215.77999999999997 108.16499999999998 C 210.79899999999998 107.38799999999998 205.08299999999997 106.99999999999997 198.63299999999998 106.99999999999997 C 192.06799999999998 106.99999999999997 185.849 107.70499999999997 179.97499999999997 109.11499999999997 C 174.10099999999997 110.52399999999997 168.93199999999996 112.72499999999997 164.46899999999997 115.71699999999997 C 160.00599999999997 118.70999999999997 156.47899999999996 122.52199999999996 153.88699999999997 127.15399999999997 C 151.29599999999996 131.78599999999997 149.99999999999997 137.32399999999996 149.99999999999997 143.76899999999998 C 149.99999999999997 151.99699999999999 152.37499999999997 159.01699999999997 157.12699999999998 164.82899999999998 C 161.878 170.64 169.08999999999997 175.55999999999997 178.765 179.58799999999997 C 182.3365848767965 181.04255764077945 185.87894909508213 182.56785799829996 189.39 184.16299999999984 C 192.67299999999997 185.65899999999996 195.509 187.21199999999996 197.899 188.82299999999995 C 200.289 190.43399999999994 202.175 192.18899999999996 203.557 194.08799999999994 C 204.939 195.98699999999994 205.63 198.14499999999992 205.63 200.56199999999993 C 205.64147217974738 202.30145639887988 205.19447104427826 204.01323621009382 204.334 205.52499999999992 C 203.471 207.04899999999992 202.16 208.37299999999993 200.404 209.49499999999992 C 198.648 210.61699999999993 196.459 211.49399999999991 193.839 212.12699999999992 C 191.219 212.75999999999993 188.152 213.0769999999999 184.639 213.0769999999999 C 178.65 213.0769999999999 172.71900000000002 212.0269999999999 166.845 209.9259999999999 C 160.97 207.8259999999999 155.528 204.6759999999999 150.518 200.4749999999999 Z M 104.482 131.742 L 140 131.742 L 140 109 L 41 109 L 41 131.742 L 76.345 131.742 L 76.345 233 L 104.482 233 L 104.482 131.742 Z" stroke-linecap="round" /></g></g></g></svg>