<svg viewBox = "0 0 1176 727" width="1176" height="727" xmlns="http://www.w3.org/2000/svg"><g transform="matrix(1 0 0 1 588 363.5)"  ><g style=""   ><g transform="matrix(1 0 0 1 0 -336)"  ><line style="stroke: rgb(222,225,230); stroke-width: 1; stroke-dasharray: none; stroke-linecap: butt; stroke-dashoffset: 0; stroke-linejoin: miter; stroke-miterlimit: 4; fill: none; fill-rule: nonzero; opacity: 1;"  x1="-588" y1="0" x2="588" y2="0" /></g><g transform="matrix(1 0 0 1 0 -304)"  ><line style="stroke: rgb(222,225,230); stroke-width: 1; stroke-dasharray: none; stroke-linecap: butt; stroke-dashoffset: 0; stroke-linejoin: miter; stroke-miterlimit: 4; fill: none; fill-rule: nonzero; opacity: 1;"  x1="-588" y1="0" x2="588" y2="0" /></g><g transform="matrix(1 0 0 1 0 -272)"  ><line style="stroke: rgb(222,225,230); stroke-width: 1; stroke-dasharray: none; stroke-linecap: butt; stroke-dashoffset: 0; stroke-linejoin: miter; stroke-miterlimit: 4; fill: none; fill-rule: nonzero; opacity: 1;"  x1="-588" y1="0" x2="588" y2="0" /></g><g transform="matrix(1 0 0 1 0 -240)"  ><line style="stroke: rgb(222,225,230); stroke-width: 1; stroke-dasharray: none; stroke-linecap: butt; stroke-dashoffset: 0; stroke-linejoin: miter; stroke-miterlimit: 4; fill: none; fill-rule: nonzero; opacity: 1;"  x1="-588" y1="0" x2="588" y2="0" /></g><g transform="matrix(1 0 0 1 0 -208)"  ><line style="stroke: rgb(222,225,230); stroke-width: 1; stroke-dasharray: none; stroke-linecap: butt; stroke-dashoffset: 0; stroke-linejoin: miter; stroke-miterlimit: 4; fill: none; fill-rule: nonzero; opacity: 1;"  x1="-588" y1="0" x2="588" y2="0" /></g><g transform="matrix(1 0 0 1 0 -176)"  ><line style="stroke: rgb(222,225,230); stroke-width: 1; stroke-dasharray: none; stroke-linecap: butt; stroke-dashoffset: 0; stroke-linejoin: miter; stroke-miterlimit: 4; fill: none; fill-rule: nonzero; opacity: 1;"  x1="-588" y1="0" x2="588" y2="0" /></g><g transform="matrix(1 0 0 1 0 -144)"  ><line style="stroke: rgb(222,225,230); stroke-width: 1; stroke-dasharray: none; stroke-linecap: butt; stroke-dashoffset: 0; stroke-linejoin: miter; stroke-miterlimit: 4; fill: none; fill-rule: nonzero; opacity: 1;"  x1="-588" y1="0" x2="588" y2="0" /></g><g transform="matrix(1 0 0 1 0 -112)"  ><line style="stroke: rgb(222,225,230); stroke-width: 1; stroke-dasharray: none; stroke-linecap: butt; stroke-dashoffset: 0; stroke-linejoin: miter; stroke-miterlimit: 4; fill: none; fill-rule: nonzero; opacity: 1;"  x1="-588" y1="0" x2="588" y2="0" /></g><g transform="matrix(1 0 0 1 0 -80)"  ><line style="stroke: rgb(222,225,230); stroke-width: 1; stroke-dasharray: none; stroke-linecap: butt; stroke-dashoffset: 0; stroke-linejoin: miter; stroke-miterlimit: 4; fill: none; fill-rule: nonzero; opacity: 1;"  x1="-588" y1="0" x2="588" y2="0" /></g><g transform="matrix(1 0 0 1 0 -48)"  ><line style="stroke: rgb(222,225,230); stroke-width: 1; stroke-dasharray: none; stroke-linecap: butt; stroke-dashoffset: 0; stroke-linejoin: miter; stroke-miterlimit: 4; fill: none; fill-rule: nonzero; opacity: 1;"  x1="-588" y1="0" x2="588" y2="0" /></g><g transform="matrix(1 0 0 1 0 -16)"  ><line style="stroke: rgb(222,225,230); stroke-width: 1; stroke-dasharray: none; stroke-linecap: butt; stroke-dashoffset: 0; stroke-linejoin: miter; stroke-miterlimit: 4; fill: none; fill-rule: nonzero; opacity: 1;"  x1="-588" y1="0" x2="588" y2="0" /></g><g transform="matrix(1 0 0 1 0 16)"  ><line style="stroke: rgb(222,225,230); stroke-width: 1; stroke-dasharray: none; stroke-linecap: butt; stroke-dashoffset: 0; stroke-linejoin: miter; stroke-miterlimit: 4; fill: none; fill-rule: nonzero; opacity: 1;"  x1="-588" y1="0" x2="588" y2="0" /></g><g transform="matrix(1 0 0 1 0 48)"  ><line style="stroke: rgb(222,225,230); stroke-width: 1; stroke-dasharray: none; stroke-linecap: butt; stroke-dashoffset: 0; stroke-linejoin: miter; stroke-miterlimit: 4; fill: none; fill-rule: nonzero; opacity: 1;"  x1="-588" y1="0" x2="588" y2="0" /></g><g transform="matrix(1 0 0 1 0 80)"  ><line style="stroke: rgb(222,225,230); stroke-width: 1; stroke-dasharray: none; stroke-linecap: butt; stroke-dashoffset: 0; stroke-linejoin: miter; stroke-miterlimit: 4; fill: none; fill-rule: nonzero; opacity: 1;"  x1="-588" y1="0" x2="588" y2="0" /></g><g transform="matrix(1 0 0 1 0 112)"  ><line style="stroke: rgb(222,225,230); stroke-width: 1; stroke-dasharray: none; stroke-linecap: butt; stroke-dashoffset: 0; stroke-linejoin: miter; stroke-miterlimit: 4; fill: none; fill-rule: nonzero; opacity: 1;"  x1="-588" y1="0" x2="588" y2="0" /></g><g transform="matrix(1 0 0 1 0 144)"  ><line style="stroke: rgb(222,225,230); stroke-width: 1; stroke-dasharray: none; stroke-linecap: butt; stroke-dashoffset: 0; stroke-linejoin: miter; stroke-miterlimit: 4; fill: none; fill-rule: nonzero; opacity: 1;"  x1="-588" y1="0" x2="588" y2="0" /></g><g transform="matrix(1 0 0 1 0 176)"  ><line style="stroke: rgb(222,225,230); stroke-width: 1; stroke-dasharray: none; stroke-linecap: butt; stroke-dashoffset: 0; stroke-linejoin: miter; stroke-miterlimit: 4; fill: none; fill-rule: nonzero; opacity: 1;"  x1="-588" y1="0" x2="588" y2="0" /></g><g transform="matrix(1 0 0 1 0 208)"  ><line style="stroke: rgb(222,225,230); stroke-width: 1; stroke-dasharray: none; stroke-linecap: butt; stroke-dashoffset: 0; stroke-linejoin: miter; stroke-miterlimit: 4; fill: none; fill-rule: nonzero; opacity: 1;"  x1="-588" y1="0" x2="588" y2="0" /></g><g transform="matrix(1 0 0 1 0 240)"  ><line style="stroke: rgb(222,225,230); stroke-width: 1; stroke-dasharray: none; stroke-linecap: butt; stroke-dashoffset: 0; stroke-linejoin: miter; stroke-miterlimit: 4; fill: none; fill-rule: nonzero; opacity: 1;"  x1="-588" y1="0" x2="588" y2="0" /></g><g transform="matrix(1 0 0 1 0 272)"  ><line style="stroke: rgb(222,225,230); stroke-width: 1; stroke-dasharray: none; stroke-linecap: butt; stroke-dashoffset: 0; stroke-linejoin: miter; stroke-miterlimit: 4; fill: none; fill-rule: nonzero; opacity: 1;"  x1="-588" y1="0" x2="588" y2="0" /></g><g transform="matrix(1 0 0 1 0 304)"  ><line style="stroke: rgb(222,225,230); stroke-width: 1; stroke-dasharray: none; stroke-linecap: butt; stroke-dashoffset: 0; stroke-linejoin: miter; stroke-miterlimit: 4; fill: none; fill-rule: nonzero; opacity: 1;"  x1="-588" y1="0" x2="588" y2="0" /></g><g transform="matrix(1 0 0 1 0 336)"  ><line style="stroke: rgb(222,225,230); stroke-width: 1; stroke-dasharray: none; stroke-linecap: butt; stroke-dashoffset: 0; stroke-linejoin: miter; stroke-miterlimit: 4; fill: none; fill-rule: nonzero; opacity: 1;"  x1="-588" y1="0" x2="588" y2="0" /></g><g transform="matrix(1 0 0 1 -491.5 0)"  ><line style="stroke: rgb(222,225,230); stroke-width: 1; stroke-dasharray: none; stroke-linecap: butt; stroke-dashoffset: 0; stroke-linejoin: miter; stroke-miterlimit: 4; fill: none; fill-rule: nonzero; opacity: 1;"  x1="0" y1="-363.50000001092786" x2="0" y2="363.50000001092786" /></g><g transform="matrix(1 0 0 1 -368.5 0)"  ><line style="stroke: rgb(222,225,230); stroke-width: 1; stroke-dasharray: none; stroke-linecap: butt; stroke-dashoffset: 0; stroke-linejoin: miter; stroke-miterlimit: 4; fill: none; fill-rule: nonzero; opacity: 1;"  x1="0" y1="-363.50000001092786" x2="0" y2="363.50000001092786" /></g><g transform="matrix(1 0 0 1 -245.5 0)"  ><line style="stroke: rgb(222,225,230); stroke-width: 1; stroke-dasharray: none; stroke-linecap: butt; stroke-dashoffset: 0; stroke-linejoin: miter; stroke-miterlimit: 4; fill: none; fill-rule: nonzero; opacity: 1;"  x1="0" y1="-363.50000001092786" x2="0" y2="363.50000001092786" /></g><g transform="matrix(1 0 0 1 -122.5 0)"  ><line style="stroke: rgb(222,225,230); stroke-width: 1; stroke-dasharray: none; stroke-linecap: butt; stroke-dashoffset: 0; stroke-linejoin: miter; stroke-miterlimit: 4; fill: none; fill-rule: nonzero; opacity: 1;"  x1="0" y1="-363.50000001092786" x2="0" y2="363.50000001092786" /></g><g transform="matrix(1 0 0 1 0.5 0)"  ><line style="stroke: rgb(222,225,230); stroke-width: 1; stroke-dasharray: none; stroke-linecap: butt; stroke-dashoffset: 0; stroke-linejoin: miter; stroke-miterlimit: 4; fill: none; fill-rule: nonzero; opacity: 1;"  x1="0" y1="-363.50000001092786" x2="0" y2="363.50000001092786" /></g><g transform="matrix(1 0 0 1 123.5 0)"  ><line style="stroke: rgb(222,225,230); stroke-width: 1; stroke-dasharray: none; stroke-linecap: butt; stroke-dashoffset: 0; stroke-linejoin: miter; stroke-miterlimit: 4; fill: none; fill-rule: nonzero; opacity: 1;"  x1="0" y1="-363.50000001092786" x2="0" y2="363.50000001092786" /></g><g transform="matrix(1 0 0 1 246.5 0)"  ><line style="stroke: rgb(222,225,230); stroke-width: 1; stroke-dasharray: none; stroke-linecap: butt; stroke-dashoffset: 0; stroke-linejoin: miter; stroke-miterlimit: 4; fill: none; fill-rule: nonzero; opacity: 1;"  x1="0" y1="-363.50000001092786" x2="0" y2="363.50000001092786" /></g><g transform="matrix(1 0 0 1 369.5 0)"  ><line style="stroke: rgb(222,225,230); stroke-width: 1; stroke-dasharray: none; stroke-linecap: butt; stroke-dashoffset: 0; stroke-linejoin: miter; stroke-miterlimit: 4; fill: none; fill-rule: nonzero; opacity: 1;"  x1="0" y1="-363.50000001092786" x2="0" y2="363.50000001092786" /></g><g transform="matrix(1 0 0 1 492.5 0)"  ><line style="stroke: rgb(222,225,230); stroke-width: 1; stroke-dasharray: none; stroke-linecap: butt; stroke-dashoffset: 0; stroke-linejoin: miter; stroke-miterlimit: 4; fill: none; fill-rule: nonzero; opacity: 1;"  x1="0" y1="-363.50000001092786" x2="0" y2="363.50000001092786" /></g></g></g></svg>